<?xml version="1.0" standalone="no"?>
<!DOCTYPE svg PUBLIC "-//W3C//DTD SVG 20010904//EN"
 "http://www.w3.org/TR/2001/REC-SVG-20010904/DTD/svg10.dtd">
<svg version="1.0" xmlns="http://www.w3.org/2000/svg"
 width="512.000000pt" height="512.000000pt" viewBox="0 0 512.000000 512.000000"
 preserveAspectRatio="xMidYMid meet">

<g transform="translate(0.000000,512.000000) scale(0.100000,-0.100000)"
fill="#000000" stroke="none">
<path d="M2015 4774 c-47 -12 -47 -14 -2 -55 61 -53 91 -118 127 -274 96 -421
75 -798 -60 -1106 -23 -52 -44 -101 -46 -109 -4 -11 22 -33 81 -73 l85 -57 21
33 c36 57 106 210 134 291 102 300 109 617 20 1008 -41 183 -91 265 -188 312
-52 24 -134 39 -172 30z"/>
<path d="M4550 2225 c0 -68 -61 -154 -135 -190 -78 -39 -137 -41 -315 -11
-283 47 -535 52 -780 16 -110 -16 -106 -10 -61 -92 l40 -73 233 -1 c311 -1
442 -21 763 -117 204 -60 289 -55 377 22 105 92 110 278 10 385 -27 29 -109
86 -124 86 -4 0 -8 -11 -8 -25z"/>
</g>
</svg>
